<?xml version="1.0" encoding="UTF-8" standalone="no"?>
<!-- Generator: Adobe Illustrator 21.0.0, SVG Export Plug-In . SVG Version: 6.00 Build 0)  -->

<svg
   xmlns:dc="http://purl.org/dc/elements/1.1/"
   xmlns:cc="http://creativecommons.org/ns#"
   xmlns:rdf="http://www.w3.org/1999/02/22-rdf-syntax-ns#"
   xmlns:svg="http://www.w3.org/2000/svg"
   xmlns="http://www.w3.org/2000/svg"
   xmlns:sodipodi="http://sodipodi.sourceforge.net/DTD/sodipodi-0.dtd"
   xmlns:inkscape="http://www.inkscape.org/namespaces/inkscape"
   version="1.1"
   id="Ebene_1"
   x="0px"
   y="0px"
   width="1000"
   height="308.41943"
   viewBox="0 0 1000 308.41944"
   xml:space="preserve"
   inkscape:version="0.48.5 r10040"
   sodipodi:docname="Prime_Video.svg"><metadata
     id="metadata87"><rdf:RDF><cc:Work
         rdf:about=""><dc:format>image/svg+xml</dc:format><dc:type
           rdf:resource="http://purl.org/dc/dcmitype/StillImage" /><dc:title /></cc:Work></rdf:RDF></metadata><defs
     id="defs85" /><sodipodi:namedview
     pagecolor="#ffffff"
     bordercolor="#666666"
     borderopacity="1"
     objecttolerance="10"
     gridtolerance="10"
     guidetolerance="10"
     inkscape:pageopacity="0"
     inkscape:pageshadow="2"
     inkscape:window-width="1025"
     inkscape:window-height="1033"
     id="namedview83"
     showgrid="false"
     inkscape:zoom="2"
     inkscape:cx="956.05817"
     inkscape:cy="114.95485"
     inkscape:window-x="904"
     inkscape:window-y="-13"
     inkscape:window-maximized="0"
     inkscape:current-layer="Ebene_1"
     fit-margin-top="0"
     fit-margin-left="0"
     fit-margin-right="0"
     fit-margin-bottom="0"><inkscape:grid
       type="xygrid"
       id="grid3013"
       empspacing="5"
       visible="true"
       enabled="true"
       snapvisiblegridlinesonly="true"
       originx="7.7160425e-005px"
       originy="-7.615385e-007px" /></sodipodi:namedview><style
     type="text/css"
     id="style3">
	.st0{fill:#00A8E1;}
	.st1{fill:#232F3E;}
	.st2{fill:#23303E;}
	.st3{fill:#24303F;}
	.st4{fill:#FFFFFF;}
	.st5{fill:#FEFEFE;}
</style><path
     style="fill:#00a8e1"
     d="m 56.138861,42.064828 c -9.843885,-0.0294 -18.935072,3.261694 -27.40293,9.565544 -0.878148,0.627249 -1.497557,1.505397 -2.626604,1.881746 -0.2509,-0.12545 -0.50964,-0.26658 -0.50964,-0.39203 -0.376349,-1.254498 -0.64293,-2.508995 -1.019279,-3.763493 -1.003598,-3.136243 -2.258096,-4.273132 -5.645239,-4.273132 -3.763493,0 -7.644595,0.12545 -11.4080869,0 -2.8853444,-0.12545 -5.5197892,0.2509 -7.526985302431,2.508995 0,44.032863 -0.0078406076,87.940282 0.117609142431,131.722242 1.63084686,2.63444 4.13200126,3.14408 7.01734566,3.01863 4.5161904,-0.12545 9.0480634,0 13.5642544,0 7.903334,0 7.919016,0.0157 7.919016,-7.7622 l 0,-35.75318 c 0,-0.87815 -0.407712,-1.87391 0.470436,-2.6266 6.397938,5.14344 13.807314,7.74652 21.836098,8.62467 11.039578,1.12904 21.075559,-1.60733 29.480692,-9.13431 6.397938,-5.77069 10.42017,-12.94485 13.054615,-20.97363 3.387144,-10.16143 3.622362,-20.66785 2.744214,-31.20563 C 95.577128,76.979063 94.103093,70.581125 91.343199,64.684987 86.199759,53.896308 78.296424,45.961611 66.253248,43.201717 62.80338,42.449018 59.420157,42.074629 56.138861,42.064828 z m -9.13431,21.287255 c 1.836662,0.0196 3.685087,0.172494 5.566833,0.548843 5.519789,1.003598 9.534181,4.037914 11.917727,9.055904 2.007196,4.014392 2.877503,8.264003 3.253853,12.780194 0.752698,8.028784 0.768379,16.057566 -1.489716,23.835456 -1.003598,3.88894 -2.791257,7.27608 -5.802051,10.03598 -3.261694,3.01079 -7.260405,4.13984 -11.525696,4.39074 -6.397938,0.37635 -12.537135,-0.98792 -18.307824,-3.99871 -1.505397,-0.7527 -2.156167,-1.77198 -2.156167,-3.52828 l 0,-22.81617 c 0,-7.526986 0.125449,-15.053971 0,-22.580956 0,-2.007196 0.752698,-3.002954 2.508995,-3.881102 5.174802,-2.44627 10.524058,-3.900703 16.034046,-3.841899 z"
     id="path5"
     inkscape:connector-curvature="0" /><path
     class="st0"
     d="m 512.46234,308.41943 c -5.01799,-0.12545 -10.03598,-0.12545 -15.05397,0 -6.89973,-0.37635 -13.79947,-0.62725 -20.69921,-1.12905 -18.31566,-1.37995 -36.38042,-4.13984 -54.31974,-8.27968 -61.59583,-14.30127 -115.66467,-43.02927 -162.83378,-84.80404 -4.39074,-3.88894 -8.53058,-7.90333 -12.79587,-11.91772 -1.0036,-1.0036 -1.88175,-2.0072 -2.38355,-3.38715 -0.62725,-1.88174 -0.5018,-3.63804 0.87815,-5.01799 1.37995,-1.50539 3.01079,-1.75629 5.01799,-1.12904 1.12905,0.37635 2.13264,1.0036 3.26169,1.63084 45.28736,28.10075 93.96187,47.92181 145.77262,60.21589 17.31206,4.13984 34.74958,7.15063 52.31254,9.40873 25.2154,3.13624 50.55625,4.26529 76.02255,3.38714 13.67403,-0.37635 27.2226,-1.63085 40.77117,-3.38714 31.73879,-4.01439 62.72488,-11.16503 93.08372,-21.20101 15.93212,-5.26889 31.48789,-11.41593 46.66731,-18.31567 2.38354,-1.12904 4.89254,-1.75629 7.52698,-1.00359 4.89255,1.37994 7.15064,6.39793 5.01799,11.03958 -0.87814,2.00719 -2.38354,3.38714 -4.13984,4.76709 -14.42672,11.41592 -29.98249,21.07555 -46.41641,29.48069 -31.11153,15.80667 -63.97937,26.7208 -98.22715,33.24418 -19.69561,3.63805 -39.51668,5.64524 -59.46319,6.39794 z"
     id="path11"
     inkscape:connector-curvature="0"
     style="fill:#00a8e1" /><path
     class="st0"
     d="m 326.67126,54.132781 c 3.13624,-1.881746 6.39794,-3.888942 9.78508,-5.645239 8.90693,-4.516191 18.44111,-6.774286 28.47709,-6.272487 7.15064,0.376349 13.67403,2.383545 18.69202,7.652435 4.76709,4.89254 6.52338,10.914128 7.02518,17.437515 0.12545,1.379947 0.12545,2.759895 0.12545,4.265292 0,21.702807 0,43.405613 0,64.982973 0,5.64524 -0.7527,6.39794 -6.39793,6.39794 -5.14344,0 -10.28688,0 -15.30487,0 -1.0036,0 -2.0072,0 -3.0108,-0.12545 -1.63085,-0.2509 -2.75989,-1.2545 -3.01079,-2.88535 -0.2509,-1.37995 -0.2509,-2.75989 -0.2509,-4.13984 0,-19.31926 0,-38.763973 0,-58.083235 0,-2.258096 0,-4.641641 -0.7527,-6.899737 -1.37995,-4.139842 -4.26529,-6.523387 -8.53058,-6.899736 -7.52699,-0.627249 -14.67763,1.129047 -21.57736,4.139842 -1.12905,0.501799 -1.5054,1.129047 -1.5054,2.258095 0,0.752699 0,1.379947 0,2.132646 0,21.326458 0,42.527465 0,63.853925 0,1.2545 0,2.38354 -0.2509,3.63804 -0.37635,2.0072 -1.12905,2.7599 -3.13624,3.0108 -1.88175,0.12545 -3.76349,0.12545 -5.77069,0.12545 -4.39074,0 -8.78148,0 -13.29767,0 -4.64165,0 -5.64524,-1.12905 -5.64524,-5.77069 0,-19.82106 0,-39.516675 0,-59.337736 0,-2.258095 -0.12545,-4.390741 -0.62725,-6.523387 -1.12905,-4.390741 -4.26529,-7.150636 -8.78149,-7.526985 -7.65243,-0.627249 -14.92852,1.129047 -21.9537,4.265291 -1.12905,0.501799 -1.5054,1.129048 -1.37995,2.383546 0,0.752698 0,1.379947 0,2.132646 0,20.950109 0,41.900215 0,62.975775 0,0.62725 0,1.2545 0,1.7563 0,4.64164 -1.0036,5.64524 -5.64524,5.64524 -5.64524,0 -11.29048,0 -16.81027,0 -4.39074,0 -5.51978,-1.2545 -5.51978,-5.51979 0,-28.9789 0,-57.957789 0,-86.936682 0,-1.003598 0,-2.007196 0.37634,-3.010794 0.62725,-1.630847 1.88175,-2.258096 3.5126,-2.383545 5.26889,0 10.41233,0 15.68122,0 2.25809,0 3.63804,1.379947 4.39074,3.512593 0.62725,1.756296 1.0036,3.387143 1.63085,5.268889 1.25449,0 2.00719,-0.878148 2.88534,-1.379947 6.89974,-4.265292 14.17582,-7.903334 22.33006,-9.408731 6.27248,-1.129048 12.54497,-1.379948 18.81746,0 6.14704,1.379947 11.03958,4.64164 14.55217,9.78508 0.2509,0.376349 0.5018,0.627249 0.7527,0.878148 -0.12545,0.12545 0,0.12545 0.12545,0.2509 z"
     id="path13"
     inkscape:connector-curvature="0"
     style="fill:#00a8e1" /><path
     style="fill:#232f3e"
     d="m 766.4981,0.94083074 c -4.7671,0 -5.64524,0.87814796 -5.64524,5.64523896 l 0,2.116965 0,38.5365963 c 0,0.878148 0.39203,1.748456 -0.23522,2.626604 -1.12905,-0.12545 -1.78766,-0.870308 -2.66581,-1.372107 -13.04677,-7.652435 -26.69728,-9.024541 -40.49675,-2.626604 -9.65963,4.516191 -15.67338,12.646903 -19.56232,22.306534 -3.76349,9.283282 -4.64164,19.060522 -4.39074,28.971053 0.2509,9.408729 2.0072,18.331349 6.27249,26.736479 4.76709,9.15783 11.6433,16.1987 21.67928,19.20949 13.67403,4.26529 26.47774,2.10913 38.14457,-6.54691 0.87815,-0.5018 1.37995,-1.35642 2.50899,-1.60732 0.87815,1.37995 0.99576,3.01079 1.37211,4.39074 0.7527,2.0072 2.0072,3.37146 4.39074,3.37146 l 3.01864,0 c 4.51619,0 8.89909,0.12545 13.28983,0 3.51259,0 4.53971,-1.14473 4.66516,-4.78277 l 0,-2.74421 0,-122.823152 0,-6.6253153 c -0.12545,-3.763493 -1.13689,-4.78277196 -4.90038,-4.78277196 l -17.44535,0 z M 741.99619,63.156068 c 5.78686,-0.142357 11.47865,1.113367 16.85731,3.528274 1.63085,0.752699 2.23457,1.764138 2.23457,3.645884 -0.2509,7.777885 -0.1176,15.398957 -0.1176,23.051392 l 0,22.855372 c 0,1.7563 -0.49396,2.73638 -1.99936,3.48908 -6.14704,3.26169 -12.65474,4.89254 -19.67993,3.76349 -6.14704,-0.87815 -10.68675,-4.01439 -13.44665,-9.40873 -2.13264,-4.01439 -2.98727,-8.27185 -3.48907,-12.66259 -0.7527,-7.903331 -0.64293,-15.783144 1.48972,-23.561029 0.62725,-2.132645 1.37995,-4.147682 2.50899,-6.154878 2.88535,-5.017991 7.40154,-7.926857 13.17223,-8.428656 0.8311,-0.07841 1.6431,-0.09727 2.46979,-0.117609 z"
     id="path15"
     inkscape:connector-curvature="0" /><path
     style="fill:#00a8e1"
     d="m 454.83386,42.888092 c -2.10324,0.0392 -4.21824,0.219538 -6.35089,0.470437 -19.82106,2.258096 -32.75807,13.164383 -38.65421,32.107296 -4.13984,12.921325 -3.62236,26.077865 -0.23521,39.124645 4.39074,16.68481 15.42247,26.59534 32.10729,30.10794 9.53418,2.13264 19.20165,1.77982 28.73584,0.27442 5.14344,-0.7527 10.05166,-2.28162 14.81875,-4.03791 2.88534,-1.12905 4.35938,-2.89319 4.23393,-6.15488 -0.12545,-3.0108 0,-6.11568 0,-9.25192 0,-3.7635 -1.49756,-4.91606 -5.1356,-4.03792 -3.51259,0.7527 -7.1428,1.63869 -10.78084,2.39139 -7.77788,1.5054 -15.6969,1.74061 -23.60023,0.23522 -10.66323,-2.13265 -17.56297,-11.29048 -16.93572,-22.58096 1.37995,0.12545 2.65012,0.25874 3.52827,0.50964 9.53418,1.88175 18.92723,1.77198 28.46142,0.39203 5.51978,-0.87815 10.78867,-2.25809 15.68121,-5.017988 5.64524,-3.261693 9.80861,-7.801406 11.5649,-14.073894 4.39075,-15.806669 -2.38354,-31.738788 -18.81746,-37.634926 -6.11567,-2.069921 -12.31171,-2.940229 -18.62145,-2.82262 z m -0.82326,19.366306 c 0.49984,0.0024 0.98792,0.0078 1.48971,0.0392 2.2581,0.12545 4.53188,0.486118 6.66452,1.489716 3.38715,1.630847 5.26105,4.155523 5.76285,7.919016 0.2509,2.258095 0.36067,4.37506 -0.39203,6.507706 -1.5054,4.516191 -5.1356,6.413618 -9.52634,7.291767 -2.88534,0.627248 -5.89614,0.878148 -8.15423,0.627248 -5.51979,0 -10.13791,-0.509639 -14.77955,-1.136888 -1.88175,-0.250899 -1.89743,-0.266581 -1.64653,-2.273777 0.37635,-3.010794 1.26234,-5.864776 2.39138,-8.62467 3.52828,-8.585468 10.69264,-11.874695 18.19022,-11.839321 z"
     id="path17"
     inkscape:connector-curvature="0" /><path
     style="fill:#232f3e"
     d="m 854.0777,42.966499 c -21.07555,0.501799 -37.1488,11.149346 -43.67219,32.224905 -4.39074,13.924923 -3.75565,28.100746 0.50964,42.025666 4.39074,14.30127 14.43456,22.96515 28.73583,26.85409 6.14704,1.63085 12.41953,1.88175 18.81747,1.88175 9.28328,0 18.19021,-1.99936 26.97169,-5.1356 3.63805,-1.37995 4.50835,-2.61877 4.50835,-6.50771 l 0,-9.0559 c -0.12545,-3.63805 -1.65437,-4.87686 -5.29241,-3.99871 -2.75989,0.75269 -5.39434,1.3721 -8.15423,1.99935 -8.53059,1.88175 -17.06117,2.49331 -25.7172,0.86247 -8.53058,-1.63085 -14.28559,-6.52339 -16.54369,-15.05397 -0.62725,-2.38355 -1.12121,-4.75925 -1.3721,-7.6446 0.75269,0 1.26233,0.0235 1.76413,0.27442 8.27969,1.63085 16.68482,2.11697 25.08995,1.48972 7.27609,-0.5018 14.52865,-1.89743 21.05204,-5.41002 6.77429,-3.638043 11.15719,-9.13431 12.66258,-16.661296 0.87815,-4.641641 0.88599,-9.283282 -0.1176,-13.799473 -2.63445,-11.290478 -9.79293,-18.315664 -20.5816,-21.953707 -6.02159,-2.007196 -12.26272,-2.516835 -18.66066,-2.391385 z m -1.25449,19.17029 c 1.29673,-0.04769 2.63444,0.01568 3.99871,0.156812 0.62725,0 1.13689,0.235218 1.76413,0.235218 8.78149,1.379948 10.92197,8.397293 9.29113,15.17158 -1.2545,5.01799 -5.39434,6.923258 -10.03598,7.801407 -2.88535,0.501799 -5.79421,0.752698 -7.80141,0.627248 -5.64524,0 -10.40449,-0.627248 -15.17158,-1.254497 -1.12905,-0.12545 -1.62301,-0.635089 -1.37211,-1.764137 0.87815,-4.892541 2.0072,-9.667472 5.01799,-13.681864 3.77134,-4.994469 8.68995,-7.085124 14.30912,-7.291767 z"
     id="path19"
     inkscape:connector-curvature="0" /><path
     class="st1"
     d="m 586.7286,116.60676 c 0.7527,-2.509 1.50539,-4.89254 2.25809,-7.40154 5.77069,-19.444709 11.54138,-38.763971 17.31207,-58.208683 0.2509,-0.752698 0.5018,-1.505397 0.7527,-2.258095 0.87815,-2.258096 2.50899,-3.638043 5.01799,-3.638043 1.88174,0 3.76349,0 5.77069,0 4.39074,0 8.78148,0 13.29767,0 4.76709,0 5.77069,1.379947 4.13984,5.896138 -2.50899,6.648837 -5.01799,13.297674 -7.52698,19.946511 -8.40514,21.828257 -16.81027,43.781962 -25.2154,65.610222 -0.2509,0.7527 -0.62725,1.5054 -0.87815,2.25809 -1.12905,2.7599 -3.13625,4.2653 -6.27249,4.13985 -5.51979,-0.12545 -11.03958,-0.12545 -16.55937,0 -3.88894,0.12545 -6.14703,-1.63085 -7.52698,-5.14344 -3.13625,-8.27969 -6.39794,-16.68482 -9.53418,-24.9645 -7.52699,-19.695615 -15.17942,-39.391227 -22.70641,-59.212288 -0.62725,-1.630847 -1.37995,-3.136244 -1.63085,-4.89254 -0.37634,-2.508995 0.5018,-3.763493 3.0108,-3.763493 7.15063,-0.12545 14.30127,0 21.32646,0 3.01079,0 4.39074,2.007196 5.14344,4.641641 1.37994,4.76709 2.75989,9.659631 4.26529,14.426721 5.14344,17.437516 10.16143,35.000482 15.30487,52.437999 -0.12545,0.12545 0,0.12545 0.2509,0.12545 z"
     id="path21"
     inkscape:connector-curvature="0"
     style="fill:#232f3e" /><path
     class="st0"
     d="m 141.25652,58.899872 c 1.2545,-0.2509 1.63085,-1.003598 2.13265,-1.505398 2.25809,-2.258095 4.64164,-4.390741 7.15063,-6.397937 6.77429,-5.14344 14.30128,-7.401535 22.83186,-6.899736 3.26169,0.12545 4.39074,1.129048 4.64164,4.265291 0.2509,4.265292 0.12545,8.656033 0.12545,12.921325 0,1.756296 0.12545,3.387143 -0.2509,5.14344 -0.5018,2.258095 -1.37995,3.136244 -3.63804,3.387143 -1.7563,0.12545 -3.38715,0 -5.14344,-0.12545 -8.40514,-0.752698 -16.55937,0.878149 -24.4627,3.512594 -1.7563,0.627248 -1.7563,1.881746 -1.7563,3.261693 0,11.792277 0,23.710003 0,35.502283 0,8.27968 0,16.43391 0,24.7136 0,1.12905 0,2.25809 -0.12545,3.26169 -0.2509,1.7563 -1.12905,2.63445 -3.01079,2.88535 -0.87815,0.12545 -1.7563,0.12545 -2.7599,0.12545 -5.39434,0 -10.78868,0 -16.30847,0 -0.87815,0 -1.75629,0 -2.75989,-0.12545 -1.7563,-0.37635 -2.88535,-1.37995 -3.0108,-3.13625 -0.12545,-1.0036 -0.12545,-2.00719 -0.12545,-3.01079 0,-28.35165 0,-56.828739 0,-85.180384 0,-5.770688 0.62725,-6.397937 6.39794,-6.397937 4.01439,0 8.02879,0 12.04318,0 3.26169,0 4.76709,1.129048 5.64524,4.265291 0.87815,3.136244 1.63084,6.272488 2.38354,9.534182 z"
     id="path23"
     inkscape:connector-curvature="0"
     style="fill:#00a8e1" /><path
     class="st0"
     d="m 728.11047,186.23137 c 8.27968,0.2509 16.43392,0.7527 24.4627,2.88534 2.2581,0.62725 4.39074,1.37995 6.52339,2.38355 3.01079,1.37995 4.64164,3.63804 5.14344,6.89974 0.5018,3.63804 0.7527,7.15063 0.37635,10.78867 -1.88175,21.57736 -8.02879,41.90022 -19.31926,60.46679 -4.0144,6.64883 -8.78149,12.67042 -14.55217,17.93931 -1.2545,1.12905 -2.509,2.13265 -4.0144,2.509 -2.38354,0.62724 -3.88894,-0.62725 -4.01439,-3.0108 0,-1.37995 0.5018,-2.50899 0.87815,-3.76349 4.39074,-11.79228 8.65603,-23.4591 12.04318,-35.62773 1.88174,-6.64884 3.51259,-13.42312 4.26529,-20.32286 0.2509,-2.509 0.37635,-5.01799 0.12545,-7.52699 -0.37635,-4.51619 -2.63445,-7.65243 -7.02519,-9.15783 -3.88894,-1.37995 -8.02878,-2.00719 -12.04318,-2.25809 -11.54137,-0.62725 -23.08275,0.12545 -34.49868,1.50539 -5.01799,0.62725 -10.16143,1.2545 -15.17942,1.88175 -1.63084,0.12545 -3.13624,0 -4.01439,-1.5054 -1.0036,-1.50539 -0.5018,-3.01079 0.37635,-4.51619 0.87815,-1.5054 2.38354,-2.50899 3.76349,-3.51259 9.28328,-6.64884 19.69561,-10.66323 30.73519,-13.29768 8.40513,-1.75629 17.18662,-2.50899 25.9681,-2.75989 z"
     id="path25"
     inkscape:connector-curvature="0"
     style="fill:#00a8e1" /><path
     class="st1"
     d="m 675.54702,94.025803 c 0,14.301267 0,28.477097 0,42.778367 0,0.7527 0,1.63085 0,2.38354 -0.2509,2.509 -1.37994,3.63805 -3.88894,3.7635 -6.77429,0.12545 -13.42312,0.12545 -20.19741,0 -2.50899,0 -3.63804,-1.2545 -3.88894,-3.63805 -0.12545,-0.7527 -0.12545,-1.63084 -0.12545,-2.38354 0,-28.4771 0,-56.95419 0,-85.431284 0,-0.376349 0,-0.752698 0,-1.254497 0.12545,-3.888943 1.12905,-5.01799 5.01799,-5.01799 6.02159,0 12.04318,0 18.06476,0 3.88895,0 5.01799,1.129047 5.01799,5.01799 0,11.917726 0,23.835453 0,35.75318 0,2.634444 0,5.268889 0,8.028784 z"
     id="path27"
     inkscape:connector-curvature="0"
     style="fill:#232f3e" /><path
     class="st0"
     d="m 190.18193,93.900353 c 0,-13.924923 0,-27.849846 0,-41.774768 0,-0.878148 0,-1.756296 0,-2.759895 0.12545,-3.010794 1.25449,-4.139841 4.26529,-4.265291 6.52339,-0.12545 13.04677,-0.12545 19.57016,0 2.88534,0 3.76349,0.878148 4.01439,3.763492 0.12545,1.129048 0.12545,2.258096 0.12545,3.261694 0,27.849845 0,55.699695 0,83.549535 0,1.37995 -0.12545,2.7599 -0.2509,4.13984 -0.2509,1.63085 -1.2545,2.63445 -3.01079,2.88535 -0.7527,0.12545 -1.37995,0.12545 -2.13265,0.12545 -5.77069,0 -11.66683,0 -17.43751,0 -0.62725,0 -1.2545,0 -1.7563,-0.12545 -2.0072,-0.37635 -3.01079,-1.2545 -3.38714,-3.2617 -0.12545,-1.00359 -0.12545,-2.00719 -0.12545,-3.01079 0.12545,-14.05037 0.12545,-28.35165 0.12545,-42.527467 z"
     id="path29"
     inkscape:connector-curvature="0"
     style="fill:#00a8e1" /><path
     class="st0"
     d="m 204.7341,0.06393674 c 1.88174,-0.125449 4.01439,0.2509 5.89614,0.878149 6.77428,2.25809496 10.28688,8.15423396 9.65963,15.80666926 -0.62725,6.648836 -5.26889,11.666827 -11.91773,12.795874 -2.75989,0.501799 -5.51979,0.501799 -8.40513,0 -7.15064,-1.379947 -12.41953,-6.648837 -11.91773,-15.681219 0.7527,-8.9069323 6.64884,-13.79947326 16.68482,-13.79947326 z"
     id="path53"
     inkscape:connector-curvature="0"
     style="fill:#00a8e1" /><path
     class="st1"
     d="m 661.6221,0.06393674 c 2.509,-0.250899 5.01799,0.2509 7.40154,1.25449796 5.14344,2.258095 8.02878,6.021588 8.53058,11.6668273 1.0036,11.415927 -6.64884,17.186616 -16.81027,16.935717 -1.37994,0 -2.75989,-0.2509 -4.13984,-0.501799 -7.77788,-1.881747 -11.79228,-7.903335 -11.03958,-16.559368 0.62725,-6.8997363 6.02159,-12.04317626 13.42313,-12.67042526 0.87814,-0.12545 1.75629,-0.12545 2.63444,-0.12545 z"
     id="path55"
     inkscape:connector-curvature="0"
     style="fill:#232f3e" /><path
     style="fill:#232f3e;fill-opacity:1;stroke:none"
     d="m 952.18109,42.953382 c -32.48345,0 -47.27273,21.794827 -47.27273,51.344524 0,38.294734 23.05758,51.667294 48.01757,51.667294 30.21044,0 47.07407,-19.82548 47.07407,-52.163856 0,-27.924509 -13.77887,-50.847962 -47.81891,-50.847962 z m 0.19863,21.178374 c 13.80464,0 20.01144,12.914724 20.01144,29.719244 0,16.82963 -4.8595,30.58822 -19.86248,30.58822 -12.39879,0 -19.96179,-9.23614 -19.96179,-30.861328 0,-18.180753 7.05573,-29.446136 19.81283,-29.446136 z"
     id="path3015"
     inkscape:connector-curvature="0" /></svg>